{"title":"The.Purge.2013.R6.720p.WEBRip-0HKAY","uid":8597594,"size":513835258,"categoryP":"video","categoryS":"hd___movies","magnet":"?xt=urn:btih:18e9fb42bef8bfa7df50cd0107afcd04f43cc151&amp;dn=The.Purge.2013.R6.720p.WEBRip-0HKAY&amp;tr=udp%3A%2F%2Ftracker.openbittorrent.com%3A80&amp;tr=udp%3A%2F%2Fopen.demonii.com%3A1337&amp;tr=udp%3A%2F%2Ftracker.coppersurfer.tk%3A6969&amp;tr=udp%3A%2F%2Fexodus.desync.com%3A6969","seeders":2,"leechers":0,"uploader":"xxxlavalxxx","files":-1,"time":1371795824,"description":" &lt;a href=&quot;http://www.imdb.com/title/tt2184339/&quot; rel=&quot;nofollow&quot; target=&quot;_NEW&quot;&gt;http://www.imdb.com/title/tt2184339/&lt;/a&gt;\n\n\nA family is held hostage for harboring the target of a murderous syndicate during the Purge, a 12-hour period in which any and all crime is legalized. \n\n\n\nDirector:\n James DeMonaco \n\nWriter:\n James DeMonaco \n\nStars:\n Ethan Hawke, Lena Headey, Max Burkholder \n\nGenres:\n  Horror |  Sci-Fi |  Thriller \n\n\n\nGeneral\n Complete name                            : The.Purge.2013.R6.720p.WEBRip-0HKAY.rmvb\n Format                                   : RealMedia\n File size                                : 490 MiB\n Duration                                 : 1h 25mn\n Overall bit rate                         : 792 Kbps\n\n Video\n ID                                       : 1\n Format                                   : RealVideo 4\n Codec ID                                 : RV40\n Codec ID/Info                            : Based on AVC (H.264), Real Player 9\n Duration                                 : 1h 25mn\n Bit rate                                 : 696 Kbps\n Width                                    : 1 280 pixels\n Height                                   : 720 pixels\n Display aspect ratio                     : 16:9\n Frame rate                               : 23.976 fps\n Bits/(Pixel*Frame)                       : 0.031\n Stream size                              : 424 MiB (87%)\n\n Audio\n ID                                       : 0\n Format                                   : AAC\n Format/Info                              : Advanced Audio Codec\n Format profile                           : LC\n Codec ID                                 : raac\n Codec ID/Info                            : Real Player 9\n Duration                                 : 1h 25mn\n Bit rate                                 : 96.0 Kbps\n Channel(s)                               : 2 channels\n Sampling rate                            : 44.1 KHz\n Bit depth                                : 16 bits\n Compression mode                         : Lossy\n Stream size                              : 58.6 MiB (12%)\n\n\n\n\n//bayimg.com/cANmHAAEF\n//bayimg.com/CANMjAaeF\n//bayimg.com/CanmKaAEF","torrent":{"xt":"urn:btih:18e9fb42bef8bfa7df50cd0107afcd04f43cc151","amp;dn":"The.Purge.2013.R6.720p.WEBRip-0HKAY","amp;tr":["udp%3A%2F%2Ftracker.openbittorrent.com%3A80","udp%3A%2F%2Fopen.demonii.com%3A1337","udp%3A%2F%2Ftracker.coppersurfer.tk%3A6969","udp%3A%2F%2Fexodus.desync.com%3A6969"],"infoHash":"18e9fb42bef8bfa7df50cd0107afcd04f43cc151","infoHashBuffer":{"type":"Buffer","data":[24,233,251,66,190,248,191,167,223,80,205,1,7,175,205,4,244,60,193,81]},"announce":[],"urlList":[]}}